<?xml version="1.0" standalone="no"?>
<!DOCTYPE svg PUBLIC "-//W3C//DTD SVG 20010904//EN"
 "http://www.w3.org/TR/2001/REC-SVG-20010904/DTD/svg10.dtd">
<svg version="1.0" xmlns="http://www.w3.org/2000/svg"
 width="548.000000pt" height="548.000000pt" viewBox="0 0 548.000000 548.000000"
 preserveAspectRatio="xMidYMid meet">
<metadata>
Created by potrace 1.11, written by Peter Selinger 2001-2013
</metadata>
<g transform="translate(0.000000,548.000000) scale(0.100000,-0.100000)"
fill="#000000" stroke="none">
<path d="M2737 5458 c6 -7 18 -43 28 -80 43 -161 -10 -320 -164 -498 -34 -38
-31 -42 -61 64 -11 38 -21 70 -23 73 -8 7 -125 -149 -151 -202 -91 -178 -68
-385 55 -515 26 -28 111 -91 115 -87 2 2 -6 32 -17 67 -31 96 -30 200 3 271
29 64 100 139 159 170 40 20 43 14 12 -22 -25 -29 -61 -149 -58 -190 7 -85 68
-153 137 -151 42 1 93 39 122 92 28 50 27 55 32 -85 2 -49 -1 -105 -6 -123
l-8 -32 30 17 c53 31 127 113 159 178 40 83 49 149 36 290 -6 65 -9 84 -22
135 -3 11 -7 30 -10 43 -10 46 -60 175 -93 237 -32 62 -115 192 -137 216 -5 7
-37 41 -69 78 -33 36 -64 66 -69 66 -6 0 -6 -5 0 -12z"/>
<path d="M3474 4839 c-3 -5 0 -9 6 -9 9 0 116 -65 130 -80 3 -3 32 -27 65 -55
54 -46 88 -80 153 -154 63 -72 182 -278 206 -357 3 -11 36 -51 72 -88 207
-212 304 -517 256 -806 -17 -107 -16 -103 -23 -115 -5 -8 -18 -50 -23 -75 -4
-17 -59 -126 -76 -150 -33 -46 -23 -45 23 3 78 82 128 154 185 264 24 46 42
84 42 85 -1 2 4 17 10 33 14 37 47 158 55 205 13 72 13 276 -1 355 -84 495
-486 883 -974 940 -30 4 -65 8 -78 10 -12 1 -25 -2 -28 -6z"/>
<path d="M1910 4813 c-56 -7 -217 -47 -257 -64 -24 -10 -46 -18 -48 -18 -3 0
-38 -17 -78 -37 -230 -115 -429 -328 -525 -564 -28 -68 -62 -172 -68 -210 -25
-149 -25 -379 1 -452 2 -7 6 -24 9 -38 16 -88 86 -249 150 -345 59 -89 144
-191 152 -182 3 3 -6 24 -20 46 -90 142 -140 392 -114 569 4 31 10 68 12 82 7
47 37 138 61 189 14 28 25 54 25 57 0 18 118 179 174 236 36 37 66 72 66 78 0
16 73 173 87 188 7 7 13 17 13 22 0 15 116 165 176 226 68 69 191 167 246 195
21 11 38 21 38 23 0 4 -60 3 -100 -1z"/>
<path d="M4494 4371 c43 -68 113 -223 132 -291 44 -162 51 -237 44 -523 -1
-21 6 -59 14 -85 33 -100 44 -185 41 -307 -3 -118 -5 -141 -27 -220 -6 -22
-11 -44 -13 -50 -4 -17 -16 -47 -47 -115 -68 -151 -195 -299 -335 -389 -29
-19 -52 -36 -50 -37 10 -10 200 75 275 123 269 172 456 451 510 763 8 46 8
325 0 370 -50 282 -210 547 -434 715 -40 30 -77 55 -82 55 -5 0 -15 7 -22 15
-25 31 -29 14 -6 -24z"/>
<path d="M918 4331 c-241 -161 -422 -444 -475 -741 -10 -55 -11 -307 -1 -371
19 -129 85 -302 161 -424 49 -80 180 -219 271 -290 73 -56 206 -128 297 -159
67 -24 67 -19 1 23 -62 41 -193 163 -227 215 -11 15 -24 34 -30 40 -45 53
-123 234 -141 326 -3 14 -9 42 -14 64 -9 42 -6 272 5 326 4 19 11 43 16 53 5
9 8 17 5 17 -3 0 3 24 13 53 13 38 16 66 11 105 -10 82 -4 259 13 352 26 145
104 348 163 426 15 19 22 34 16 34 -6 0 -43 -22 -84 -49z"/>
<path d="M4106 3782 c1 -119 -3 -179 -17 -247 -11 -49 -20 -97 -22 -105 -1 -8
-5 -19 -9 -25 -3 -5 -9 -26 -13 -45 -4 -19 -11 -41 -15 -50 -4 -8 -27 -55 -51
-104 -116 -241 -326 -449 -570 -565 -90 -43 -90 -43 26 -44 93 0 193 11 218
24 12 7 22 11 22 9 0 -6 80 23 120 44 113 57 236 161 312 261 47 62 120 222
138 305 48 215 10 454 -103 637 l-38 62 2 -157z"/>
<path d="M1352 3873 c-17 -27 -40 -68 -52 -93 -12 -25 -26 -52 -30 -62 -10
-19 -36 -115 -47 -173 -9 -50 -10 -205 -1 -265 21 -160 115 -346 232 -465 108
-108 281 -207 406 -229 51 -10 280 -20 280 -12 0 3 -33 22 -72 42 -246 122
-450 326 -571 569 -36 73 -82 198 -91 250 -3 17 -8 41 -11 55 -14 61 -16 82
-20 210 -2 74 0 154 4 178 5 23 7 42 6 42 -2 0 -16 -21 -33 -47z"/>
<path d="M2504 3690 c-53 -12 -93 -42 -109 -82 -8 -21 -15 -45 -15 -53 0 -9
-12 -21 -27 -27 -51 -22 -115 -81 -134 -124 -33 -74 -13 -148 58 -217 l39 -37
1 40 c2 71 74 140 148 140 92 0 165 -112 168 -258 1 -64 -2 -73 -65 -202 -157
-316 -205 -617 -144 -910 8 -41 18 -88 21 -105 15 -78 37 -195 45 -242 17 -92
29 -157 35 -188 11 -56 37 -200 41 -225 3 -14 7 -36 9 -50 8 -40 14 -71 25
-130 6 -30 12 -66 15 -80 3 -14 8 -41 11 -60 11 -57 41 -216 50 -265 2 -11 9
-47 15 -80 6 -33 12 -64 13 -70 2 -5 9 -45 16 -88 14 -83 24 -89 34 -20 3 23
12 70 20 105 8 35 17 83 21 107 3 24 15 84 26 134 10 49 22 110 25 136 3 25
10 54 15 64 6 9 8 17 5 17 -2 0 0 18 5 40 5 22 12 56 15 76 6 42 10 59 18 94
30 127 29 144 -4 210 -48 95 -91 234 -108 350 -9 62 -9 293 1 358 26 184 95
355 213 528 81 121 101 160 126 248 27 94 30 266 7 351 -20 75 -53 148 -74
165 -26 21 -18 40 18 41 63 2 89 8 133 29 50 25 61 40 70 98 l6 40 -50 -17
c-34 -12 -72 -16 -118 -13 -38 2 -81 4 -96 4 -31 2 -29 10 5 15 111 16 232 67
272 114 32 39 25 50 -22 34 -70 -24 -246 -35 -323 -20 -14 2 -57 7 -95 10 -39
3 -86 7 -105 10 -66 9 -225 12 -256 5z m216 -97 c8 -8 -31 -32 -70 -43 -58
-17 -170 -25 -170 -11 0 42 95 73 195 63 22 -2 42 -6 45 -9z"/>
<path d="M5164 3445 c1 -64 -2 -119 -6 -121 -5 -3 -6 -10 -3 -15 9 -13 -22
-166 -51 -256 -33 -102 -83 -207 -138 -293 -25 -38 -47 -86 -51 -107 -14 -97
-34 -163 -80 -260 -39 -83 -103 -179 -169 -251 -87 -96 -254 -201 -390 -247
-63 -21 -76 -24 -168 -38 -43 -6 -78 -14 -78 -18 0 -17 274 -23 355 -8 28 5
61 12 75 14 127 24 277 88 398 171 78 54 77 54 163 139 60 58 199 247 199 268
0 4 13 33 29 66 87 180 120 470 75 671 -3 14 -7 34 -9 45 -3 11 -7 29 -9 40
-10 49 -84 218 -123 283 l-21 33 2 -116z"/>
<path d="M294 3498 c-9 -17 -24 -46 -34 -62 -29 -52 -72 -167 -91 -244 -74
-295 -18 -639 145 -881 20 -29 36 -55 36 -57 0 -12 144 -164 205 -214 41 -35
122 -90 132 -90 4 0 19 -9 33 -20 14 -11 33 -20 43 -20 9 0 17 -4 17 -8 0 -10
206 -79 260 -87 19 -3 53 -9 75 -12 45 -7 269 -6 300 1 11 2 28 5 38 5 9 1 17
4 17 9 0 4 -24 8 -53 8 -28 1 -92 11 -142 24 -297 74 -546 293 -656 575 -23
59 -49 156 -55 205 -3 19 -26 68 -52 110 -50 79 -122 229 -122 254 0 8 -4 17
-9 20 -4 3 -12 20 -16 38 -4 18 -9 38 -11 43 -22 74 -38 219 -38 338 1 53 -1
97 -2 97 -2 0 -11 -14 -20 -32z"/>
<path d="M4596 3285 c-14 -53 -70 -163 -132 -257 -61 -92 -221 -268 -244 -268
-5 0 -10 -4 -10 -8 0 -8 -108 -83 -160 -111 -113 -61 -250 -115 -320 -127 -14
-3 -34 -8 -45 -11 -11 -4 -31 -7 -45 -9 -14 -1 -50 -5 -80 -9 -66 -8 -207 -8
-220 0 -6 3 -10 2 -10 -4 0 -10 182 -102 225 -115 127 -36 284 -36 425 -1 180
44 345 150 451 288 24 31 49 63 55 70 18 20 62 110 83 169 27 72 39 122 47
193 14 123 -1 275 -20 200z"/>
<path d="M867 3273 c-9 -15 -11 -166 -3 -218 23 -149 57 -239 131 -355 106
-164 257 -281 446 -344 95 -32 140 -39 259 -39 119 -1 174 7 258 39 56 21 192
90 192 97 0 2 -45 2 -100 1 -135 -1 -306 26 -415 68 -128 48 -279 128 -343
182 -114 95 -221 208 -269 284 -10 15 -20 29 -23 32 -17 16 -108 202 -122 250
-3 10 -6 11 -11 3z"/>
<path d="M4725 2484 c-50 -43 -184 -132 -250 -166 -46 -23 -180 -75 -215 -83
-8 -2 -46 -11 -84 -20 -38 -9 -75 -14 -82 -11 -7 3 -16 1 -18 -3 -3 -5 -65 -9
-139 -9 -216 -2 -375 35 -570 131 -135 67 -132 68 -65 -27 85 -119 169 -191
297 -256 153 -76 331 -102 516 -76 209 31 430 173 557 359 40 59 104 185 97
192 -2 2 -22 -12 -44 -31z"/>
<path d="M710 2484 c0 -4 18 -42 39 -85 185 -370 600 -552 996 -437 127 37
258 112 340 196 46 48 150 190 143 197 -2 2 -33 -13 -68 -33 -94 -54 -237
-110 -325 -127 -152 -30 -326 -39 -435 -22 -146 23 -245 52 -370 109 -71 33
-238 141 -282 182 -27 26 -38 32 -38 20z"/>
<path d="M5346 2432 c-27 -64 -80 -154 -134 -227 -40 -53 -165 -183 -219 -226
-38 -30 -161 -110 -208 -134 -16 -8 -41 -31 -54 -51 -100 -146 -314 -292 -506
-345 -104 -29 -127 -31 -270 -32 -133 0 -286 31 -366 74 -11 5 -19 6 -19 1 0
-9 52 -47 115 -82 19 -11 50 -29 69 -39 41 -23 155 -65 233 -85 89 -23 146
-29 288 -29 175 1 302 31 472 114 68 33 128 66 135 72 7 7 34 27 59 45 70 50
192 182 248 269 28 43 51 82 50 87 0 5 3 12 8 15 9 6 25 39 57 114 17 41 53
170 61 222 10 63 16 285 7 285 -4 0 -16 -21 -26 -48z"/>
<path d="M101 2338 c2 -109 22 -229 56 -333 22 -70 94 -225 104 -225 5 0 9 -6
9 -12 0 -20 94 -140 165 -212 202 -204 495 -327 778 -326 98 0 115 1 202 14
84 11 252 69 335 114 47 26 180 113 180 117 0 2 -35 -9 -79 -25 -144 -50 -186
-58 -341 -60 -241 -3 -470 89 -655 262 -36 33 -81 82 -101 109 -21 28 -54 59
-78 71 -144 72 -295 200 -404 342 -54 70 -136 210 -145 249 -4 15 -12 27 -18
27 -7 0 -10 -39 -8 -112z"/>
<path d="M2977 2308 c-13 -35 -32 -94 -42 -133 -27 -110 -23 -343 8 -400 6
-11 9 -20 8 -20 -9 0 27 -99 57 -155 146 -281 431 -457 742 -458 58 0 134 5
170 12 62 12 64 13 37 24 -15 7 -38 14 -50 16 -29 6 -134 43 -150 53 -6 4 -14
8 -17 8 -12 2 -90 42 -140 74 -83 52 -167 118 -228 180 -55 56 -170 203 -180
231 -3 8 -8 17 -12 20 -9 8 -66 128 -89 190 -40 105 -70 244 -76 358 -2 30 -5
56 -8 58 -2 3 -16 -23 -30 -58z"/>
<path d="M3134 2283 c5 -53 11 -85 32 -191 8 -42 92 -191 142 -254 145 -182
354 -294 585 -314 94 -8 85 -8 157 0 107 12 216 43 295 84 57 29 195 124 195
133 0 4 -28 1 -63 -7 -115 -24 -292 -33 -392 -20 -99 13 -139 21 -215 42 -91
26 -311 130 -347 164 -12 11 -25 20 -29 20 -9 0 -108 85 -154 131 -69 71 -101
110 -156 191 l-56 82 6 -61z"/>
<path d="M2240 2158 c-134 -178 -362 -339 -585 -413 -55 -19 -50 -17 -155 -41
-77 -17 -352 -25 -414 -11 -96 21 -138 28 -142 25 -2 -2 20 -22 49 -43 28 -22
54 -42 57 -45 12 -12 109 -60 160 -79 121 -44 191 -55 325 -54 313 5 607 194
738 474 24 51 26 65 22 149 -2 51 -5 94 -7 95 -2 2 -23 -24 -48 -57z"/>
<path d="M2325 1779 c-15 -47 -133 -207 -214 -288 -99 -101 -207 -179 -336
-244 -85 -42 -211 -88 -267 -96 -19 -3 32 -22 72 -27 134 -18 263 -9 380 26
36 10 70 20 75 20 6 1 15 5 20 10 6 4 39 23 75 42 64 33 82 46 163 118 62 55
118 130 112 150 -3 10 -8 31 -10 46 -2 16 -9 52 -15 79 -6 28 -12 61 -14 75
-15 107 -27 134 -41 89z"/>
<path d="M2985 1413 c50 -119 150 -263 252 -360 60 -58 183 -153 198 -153 4 0
19 -8 33 -18 28 -19 166 -82 192 -87 8 -2 42 -11 75 -19 56 -15 93 -23 155
-32 41 -6 212 -5 255 1 22 3 56 8 75 11 50 7 234 66 238 76 2 4 7 6 11 3 4 -2
43 16 86 40 43 25 82 45 86 45 4 0 9 3 11 8 2 4 23 22 46 39 88 63 186 167
253 265 39 57 110 190 104 196 -1 2 -33 -19 -69 -47 -116 -87 -332 -184 -455
-206 -19 -3 -37 -7 -40 -9 -10 -7 -133 -18 -211 -21 -61 -2 -88 -8 -142 -34
-36 -18 -78 -34 -93 -37 -15 -3 -52 -12 -83 -20 -78 -21 -268 -25 -362 -8
-237 44 -411 146 -582 342 -16 18 -28 36 -28 41 0 6 -5 13 -11 16 -5 4 -3 -10
6 -32z"/>
<path d="M435 1373 c54 -128 177 -291 295 -390 216 -182 479 -275 760 -268
288 6 545 114 757 318 89 86 193 228 193 265 0 12 -3 22 -6 22 -3 0 -24 -18
-47 -39 -70 -66 -138 -116 -214 -159 -40 -23 -73 -39 -73 -36 0 2 -14 -3 -31
-11 -34 -18 -159 -52 -223 -60 -167 -23 -371 8 -527 79 -42 18 -78 25 -159 30
-130 7 -151 10 -265 40 -143 37 -341 135 -427 212 -45 39 -50 38 -33 -3z"/>
<path d="M2379 982 c-133 -111 -210 -203 -254 -303 -11 -24 -22 -46 -25 -49
-3 -3 -14 -32 -24 -65 -10 -33 -21 -65 -23 -71 -2 -6 20 -25 49 -42 29 -16 67
-42 83 -56 l30 -26 47 97 c26 54 81 170 123 258 101 210 116 250 109 283 -3
15 -6 33 -6 40 -1 6 -4 12 -8 12 -4 0 -49 -35 -101 -78z"/>
<path d="M2995 1038 c-14 -63 -12 -78 20 -144 18 -38 59 -123 90 -189 31 -66
79 -168 107 -227 l51 -107 36 28 c20 15 56 41 81 56 25 15 46 29 48 30 6 5
-43 135 -73 195 -54 108 -162 234 -269 315 -21 17 -49 38 -62 48 -23 18 -23
18 -29 -5z"/>
<path d="M2462 636 c-40 -82 -72 -150 -72 -152 0 -11 -83 -169 -91 -175 -12
-7 152 -164 241 -230 51 -39 129 -79 134 -71 2 4 0 30 -5 57 -5 28 -12 61 -14
75 -3 14 -7 39 -10 55 -3 17 -10 55 -16 85 -6 30 -12 66 -14 80 -2 14 -13 72
-24 130 -23 120 -30 153 -36 195 -19 112 -15 114 -93 -49z"/>
<path d="M2917 638 c-15 -79 -30 -154 -32 -168 -3 -14 -16 -83 -30 -155 -28
-140 -33 -166 -41 -205 -3 -14 -7 -37 -9 -53 -2 -15 -7 -32 -10 -37 -23 -37
69 2 151 64 84 64 246 219 235 225 -10 6 -47 82 -181 368 -27 57 -50 103 -52
103 -2 0 -16 -64 -31 -142z"/>
</g>
</svg>
